<svg width="319" height="80" viewBox="0 0 319 80" fill="none" xmlns="http://www.w3.org/2000/svg">
<path d="M28.916 25.8301C35.7292 24.6224 42.2575 23.7337 48.501 23.1641C49.1618 23.1413 49.515 23.0615 49.5605 22.9248C49.6745 22.6514 50.096 21.1133 50.8252 18.3105C52.762 10.9277 53.7305 6.1084 53.7305 3.85254C53.7305 3.05501 53.6279 2.54232 53.4229 2.31445C53.2406 2.08659 52.9785 1.97266 52.6367 1.97266C51.6113 1.97266 50.1416 2.65625 48.2275 4.02344C46.3135 5.36784 44.3083 7.15658 42.2119 9.38965C38.7028 13.2861 34.2708 18.7663 28.916 25.8301ZM38.042 79.1504C37.7686 79.1504 37.5179 79.0137 37.29 78.7402C37.0622 78.4896 36.9482 77.9085 36.9482 76.9971C36.9938 71.3005 38.2015 63.7581 40.5713 54.3701C41.7334 49.6533 43.9209 41.9857 47.1338 31.3672L48.877 25.3857L49.0137 24.8389C45.026 25.2262 41.4486 25.6364 38.2812 26.0693C35.1139 26.4795 31.4567 27.0947 27.3096 27.915C21.1117 35.9131 16.3949 41.8604 13.1592 45.7568C9.9235 49.6533 7.38281 52.2965 5.53711 53.6865C3.94206 54.8714 2.64323 55.4639 1.64062 55.4639C1.16211 55.4411 0.763346 55.293 0.444336 55.0195C0.148112 54.7461 0 54.4157 0 54.0283C0 53.8232 0.0683594 53.6296 0.205078 53.4473C0.341797 53.2422 0.524089 53.1396 0.751953 53.1396C1.0026 53.1396 1.1849 53.208 1.29883 53.3447C1.41276 53.4587 1.5153 53.641 1.60645 53.8916H1.64062C2.73438 53.7093 4.12435 52.8548 5.81055 51.3281C7.51953 49.7786 10.0488 46.9531 13.3984 42.8516C14.7201 41.2337 16.9076 38.4766 19.9609 34.5801C23.1055 30.5924 24.6777 28.5645 24.6777 28.4961H24.6436C24.3701 28.4961 22.6156 28.9062 19.3799 29.7266C16.167 30.5469 13.0908 31.39 10.1514 32.2559C6.91569 33.1901 5.08138 33.6572 4.64844 33.6572C3.89648 33.6572 3.50911 33.3724 3.48633 32.8027C3.48633 32.4382 3.72559 32.0622 4.2041 31.6748C4.59147 31.4014 5.14974 31.0824 5.87891 30.7178C6.63086 30.3304 7.36003 29.9886 8.06641 29.6924C8.77279 29.3962 9.23991 29.248 9.46777 29.248C10.0602 29.2936 10.3564 29.5671 10.3564 30.0684L10.2881 30.376C10.2881 30.3988 10.3109 30.4102 10.3564 30.4102C10.5615 30.3874 11.7122 30.0798 13.8086 29.4873C16.1784 28.8037 17.819 28.348 18.7305 28.1201C19.8014 27.8467 21.5674 27.4251 24.0283 26.8555C25.555 26.5137 26.3411 26.3314 26.3867 26.3086C31.5137 19.6777 34.8519 15.4053 36.4014 13.4912C43.3285 4.96908 48.7288 0.548503 52.6025 0.229492C53.1722 0.229492 53.6849 0.388997 54.1406 0.708008C54.6191 1.00423 54.9495 1.42578 55.1318 1.97266C55.3141 2.49674 55.4053 3.19173 55.4053 4.05762C55.4053 7.13379 54.0609 13.4229 51.3721 22.9248C52.0785 22.9248 52.557 22.9134 52.8076 22.8906C54.3799 22.7083 58.9714 22.526 66.582 22.3438C69.8633 22.2982 72.2217 22.2184 73.6572 22.1045L74.2725 22.0703C74.5459 22.0703 74.7396 22.0931 74.8535 22.1387C74.9674 22.1842 75.0358 22.2526 75.0586 22.3438C75.0814 22.4121 75.0928 22.4919 75.0928 22.583C75.1156 22.6742 75.127 22.7539 75.127 22.8223C75.127 23.1868 74.8991 23.4489 74.4434 23.6084C74.0104 23.7451 70.4557 23.9274 63.7793 24.1553C56.8294 24.3604 52.5228 24.554 50.8594 24.7363L49.2871 30.1367C48.6263 32.2559 47.487 36.0384 45.8691 41.4844C45.0716 44.2188 44.3311 46.8278 43.6475 49.3115C41.1637 58.4717 39.5915 66.1393 38.9307 72.3145C38.8167 73.4538 38.7598 74.1829 38.7598 74.502V74.6045C38.8281 74.6045 39.1927 73.5107 39.8535 71.3232C40.5143 69.1585 40.9131 67.6204 41.0498 66.709C41.141 66.1393 41.2321 65.752 41.3232 65.5469C41.4827 65.3874 41.665 65.3076 41.8701 65.3076C42.417 65.3076 42.6904 65.7747 42.6904 66.709C42.6904 67.3242 42.474 68.3952 42.041 69.9219C41.6309 71.4714 41.1751 72.9867 40.6738 74.4678C40.1725 75.9717 39.7738 77.0654 39.4775 77.749C39.0218 78.6833 38.5433 79.1504 38.042 79.1504ZM57.627 45.5859C57.1484 45.5859 56.6927 45.4834 56.2598 45.2783C55.1432 44.6859 54.585 43.6263 54.585 42.0996C54.585 41.1654 54.7559 40.2311 55.0977 39.2969C55.4167 38.3398 55.7812 37.5537 56.1914 36.9385C57.8548 34.3864 60.1676 32.9281 63.1299 32.5635L63.7451 32.5293C64.9984 32.5293 66.2402 32.8255 67.4707 33.418C68.724 33.9876 69.4759 34.9788 69.7266 36.3916V36.5625C69.7266 37.0182 69.4759 37.2803 68.9746 37.3486C68.724 37.3486 68.5303 37.2689 68.3936 37.1094C68.2796 36.9499 68.1771 36.7448 68.0859 36.4941C67.9492 36.0156 67.6302 35.5485 67.1289 35.0928C66.6504 34.637 65.7389 34.3522 64.3945 34.2383H64.0186C61.5348 34.2383 59.4613 35.3548 57.7979 37.5879C56.7725 39.2285 56.2598 40.6982 56.2598 41.9971C56.2598 42.43 56.3281 42.806 56.4648 43.125C56.7155 43.6035 57.0801 43.8428 57.5586 43.8428C58.1283 43.8428 58.7663 43.6149 59.4727 43.1592C60.2018 42.7035 60.8626 42.2135 61.4551 41.6895C62.0475 41.1654 62.4577 40.7666 62.6855 40.4932C62.9362 40.1969 63.1299 39.9805 63.2666 39.8438C63.4261 39.707 63.5628 39.6159 63.6768 39.5703C63.8135 39.5247 63.973 39.502 64.1553 39.502C64.4743 39.502 64.7021 39.5931 64.8389 39.7754C64.9756 39.9349 65.0895 40.2311 65.1807 40.6641C65.3857 41.9401 65.9896 42.5781 66.9922 42.5781H67.2656C68.9518 42.5781 71.0482 41.6211 73.5547 39.707C74.056 39.3197 74.4548 39.126 74.751 39.126C75.1611 39.126 75.3662 39.3311 75.3662 39.7412C75.3662 40.0146 75.2067 40.3564 74.8877 40.7666C74.5231 41.1312 73.9535 41.5755 73.1787 42.0996C71.0596 43.5124 69.0885 44.2188 67.2656 44.2188C66.6504 44.2188 66.1263 44.1276 65.6934 43.9453C64.8047 43.4896 64.2008 42.7832 63.8818 41.8262C62.9932 42.6465 62.3096 43.2503 61.8311 43.6377C60.236 44.9365 58.8346 45.5859 57.627 45.5859ZM75.2637 43.6035C75.4915 43.6035 75.9701 43.1592 76.6992 42.2705C77.1549 41.7008 77.679 40.9375 78.2715 39.9805C79.1829 38.5677 79.6387 37.793 79.6387 37.6562C79.6387 37.6107 79.5931 37.5765 79.502 37.5537C79.4108 37.5081 79.2855 37.4626 79.126 37.417C78.9893 37.3714 78.8411 37.3486 78.6816 37.3486C77.5651 37.3486 76.5625 38.1917 75.6738 39.8779C75.2181 40.9489 74.9902 41.8831 74.9902 42.6807C74.9902 43.2959 75.0814 43.6035 75.2637 43.6035ZM77.8613 54.7803C77.679 54.7803 77.4967 54.7347 77.3145 54.6436C77.1549 54.5296 77.0752 54.3245 77.0752 54.0283C77.0752 53.7321 77.1663 53.1624 77.3486 52.3193L79.9463 40.6641C79.9235 40.6641 79.6842 40.9831 79.2285 41.6211C77.5423 44.1276 76.1523 45.3809 75.0586 45.3809C74.4889 45.3809 74.0218 45.0505 73.6572 44.3896C73.4294 43.9339 73.3154 43.3415 73.3154 42.6123C73.3154 42.0199 73.3838 41.4274 73.5205 40.835C74.1585 38.6019 75.2637 37.0524 76.8359 36.1865C77.4056 35.9131 77.9867 35.7764 78.5791 35.7764C79.012 35.7764 79.4336 35.8447 79.8438 35.9814L80.5615 36.1865L81.04 35.3662C81.3363 34.8421 81.8034 33.4749 82.4414 31.2646C84.2871 24.8389 85.6201 20.7829 86.4404 19.0967C86.7139 18.5042 86.9987 18.1396 87.2949 18.0029C87.5 17.9118 87.6823 17.8662 87.8418 17.8662C88.3203 17.8662 88.5824 18.2536 88.6279 19.0283C88.6051 19.8714 88.2861 21.4323 87.6709 23.7109C87.1012 25.8073 86.4632 27.7783 85.7568 29.624C85.21 30.9684 84.5036 32.4609 83.6377 34.1016L83.0566 35.2979L82.1338 39.0918C81.4502 41.8945 80.721 45.0277 79.9463 48.4912C79.1943 51.9548 78.75 53.8802 78.6133 54.2676C78.4082 54.6094 78.1576 54.7803 77.8613 54.7803ZM77.5195 75.7666C77.679 75.7666 77.9297 75.5501 78.2715 75.1172C79.1829 73.9095 80.2197 72.1549 81.3818 69.8535C82.5439 67.5749 83.6377 65.0911 84.6631 62.4023C85.7113 59.7135 86.7139 56.7741 87.6709 53.584C88.1038 52.1712 88.3203 51.3509 88.3203 51.123C88.252 51.123 87.9899 51.3965 87.5342 51.9434C86.5999 53.1055 85.5404 54.5182 84.3555 56.1816C83.3529 57.6172 82.3047 59.3717 81.2109 61.4453C78.4993 66.5039 77.1436 70.6283 77.1436 73.8184C77.1436 75.1172 77.2689 75.7666 77.5195 75.7666ZM77.5195 77.5098C77.2689 77.5098 77.0182 77.4528 76.7676 77.3389C75.8561 76.8831 75.4004 75.8008 75.4004 74.0918C75.4004 72.5651 75.6852 70.8561 76.2549 68.9648C78.2829 61.9922 82.3275 55.1221 88.3887 48.3545C88.89 47.8076 89.209 47.4316 89.3457 47.2266C89.4824 46.9987 89.6077 46.6683 89.7217 46.2354C89.8128 45.9619 90.109 44.8568 90.6104 42.9199C90.8382 42.054 90.9521 41.5186 90.9521 41.3135C90.9521 41.2451 90.9294 41.2109 90.8838 41.2109C90.8154 41.2109 90.6445 41.359 90.3711 41.6553L90.0635 41.9629C88.9925 43.1022 87.9899 43.6719 87.0557 43.6719C86.0075 43.6719 85.1986 43.1364 84.6289 42.0654C84.3783 41.5641 84.2529 40.9831 84.2529 40.3223C84.2529 39.6387 84.3555 38.9323 84.5605 38.2031C84.7884 37.474 85.0391 36.8473 85.3125 36.3232C85.9277 35.1611 86.5202 34.5801 87.0898 34.5801C87.2949 34.5801 87.4544 34.6598 87.5684 34.8193C87.7051 34.9788 87.7734 35.1497 87.7734 35.332C87.7734 35.5599 87.6937 35.765 87.5342 35.9473C87.1012 36.3574 86.7139 36.984 86.3721 37.8271C86.0531 38.6475 85.8936 39.4222 85.8936 40.1514C85.8936 40.6071 85.9733 40.9945 86.1328 41.3135C86.3607 41.7008 86.6455 41.8945 86.9873 41.8945C87.4886 41.8945 88.0469 41.6097 88.6621 41.04C89.3001 40.4704 89.8584 39.8665 90.3369 39.2285C90.8382 38.5677 91.1572 38.0664 91.2939 37.7246C91.5446 37.2689 91.8408 37.041 92.1826 37.041C92.4561 37.041 92.6953 37.1436 92.9004 37.3486C93.1055 37.5309 93.208 37.736 93.208 37.9639C93.208 38.3512 92.9688 39.6387 92.4902 41.8262L92.0117 44.2529C92.0801 44.2529 92.9232 43.4326 94.541 41.792C96.1589 40.1514 97.0589 39.2855 97.2412 39.1943C97.4463 39.0804 97.6286 39.0234 97.7881 39.0234C98.1755 39.0234 98.3919 39.2741 98.4375 39.7754C98.4375 39.8665 98.3919 39.9919 98.3008 40.1514C98.1413 40.402 97.5146 41.097 96.4209 42.2363C93.208 45.5632 91.4648 47.4316 91.1914 47.8418C91.0775 47.9785 90.7926 48.8444 90.3369 50.4395C87.2835 61.3542 84.0137 69.4775 80.5273 74.8096C80.026 75.5843 79.5931 76.1995 79.2285 76.6553C78.7272 77.2249 78.1576 77.5098 77.5195 77.5098ZM99.7363 45.5859C99.2578 45.5859 98.8021 45.4834 98.3691 45.2783C97.2526 44.6859 96.6943 43.6263 96.6943 42.0996C96.6943 41.1654 96.8652 40.2311 97.207 39.2969C97.526 38.3398 97.8906 37.5537 98.3008 36.9385C99.9642 34.3864 102.277 32.9281 105.239 32.5635L105.854 32.5293C107.108 32.5293 108.35 32.8255 109.58 33.418C110.833 33.9876 111.585 34.9788 111.836 36.3916V36.5625C111.836 37.0182 111.585 37.2803 111.084 37.3486C110.833 37.3486 110.64 37.2689 110.503 37.1094C110.389 36.9499 110.286 36.7448 110.195 36.4941C110.059 36.0156 109.74 35.5485 109.238 35.0928C108.76 34.637 107.848 34.3522 106.504 34.2383H106.128C103.644 34.2383 101.571 35.3548 99.9072 37.5879C98.8818 39.2285 98.3691 40.6982 98.3691 41.9971C98.3691 42.43 98.4375 42.806 98.5742 43.125C98.8249 43.6035 99.1895 43.8428 99.668 43.8428C100.238 43.8428 100.876 43.6149 101.582 43.1592C102.311 42.7035 102.972 42.2135 103.564 41.6895C104.157 41.1654 104.567 40.7666 104.795 40.4932C105.046 40.1969 105.239 39.9805 105.376 39.8438C105.535 39.707 105.672 39.6159 105.786 39.5703C105.923 39.5247 106.082 39.502 106.265 39.502C106.584 39.502 106.812 39.5931 106.948 39.7754C107.085 39.9349 107.199 40.2311 107.29 40.6641C107.495 41.9401 108.099 42.5781 109.102 42.5781H109.375C111.061 42.5781 113.158 41.6211 115.664 39.707C116.165 39.3197 116.564 39.126 116.86 39.126C117.271 39.126 117.476 39.3311 117.476 39.7412C117.476 40.0146 117.316 40.3564 116.997 40.7666C116.632 41.1312 116.063 41.5755 115.288 42.0996C113.169 43.5124 111.198 44.2188 109.375 44.2188C108.76 44.2188 108.236 44.1276 107.803 43.9453C106.914 43.4896 106.31 42.7832 105.991 41.8262C105.103 42.6465 104.419 43.2503 103.94 43.6377C102.345 44.9365 100.944 45.5859 99.7363 45.5859ZM115.288 45.3125C115.083 45.3125 114.912 45.2327 114.775 45.0732C114.616 44.9137 114.536 44.6517 114.536 44.2871C114.536 44.0137 114.593 43.6833 114.707 43.2959C115.299 41.6097 116.108 39.4222 117.134 36.7334C117.407 36.0726 117.624 35.6055 117.783 35.332C117.965 35.0586 118.136 34.8991 118.296 34.8535L118.467 34.8193C118.626 34.8193 118.774 34.8763 118.911 34.9902C119.048 35.0814 119.128 35.1839 119.15 35.2979C119.196 35.4118 119.23 35.5029 119.253 35.5713C119.253 35.7992 118.991 36.5511 118.467 37.8271C118.239 38.4196 118.125 38.75 118.125 38.8184V38.8525L118.33 38.7158C118.991 38.1462 119.606 37.8613 120.176 37.8613C120.632 37.8613 121.087 38.0778 121.543 38.5107C121.657 38.6247 121.759 38.75 121.851 38.8867C121.942 39.0234 122.044 39.2285 122.158 39.502C122.295 39.7526 122.466 40.1058 122.671 40.5615C123.081 41.3363 123.571 41.7236 124.141 41.7236C124.688 41.7236 125.246 41.5299 125.815 41.1426C126.385 40.7324 126.898 40.3337 127.354 39.9463C127.809 39.5589 128.197 39.3652 128.516 39.3652C128.88 39.3652 129.074 39.5589 129.097 39.9463C129.097 40.1514 129.006 40.3792 128.823 40.6299C128.185 41.4046 127.433 42.0426 126.567 42.5439C125.724 43.0452 124.893 43.2959 124.072 43.2959C122.682 43.2959 121.646 42.5212 120.962 40.9717C120.734 40.4704 120.563 40.1286 120.449 39.9463C120.335 39.7412 120.221 39.6387 120.107 39.6387C120.039 39.6387 119.959 39.6615 119.868 39.707C119.367 40.0033 118.763 40.6413 118.057 41.6211C117.373 42.5781 116.872 43.4668 116.553 44.2871C116.439 44.6061 116.268 44.8568 116.04 45.0391C115.789 45.2214 115.539 45.3125 115.288 45.3125ZM135.078 23.6768C135.169 23.6768 135.42 23.2438 135.83 22.3779C137.197 19.4157 138.211 16.9092 138.872 14.8584C139.715 12.3519 140.137 10.6201 140.137 9.66309C139.84 10.1188 138.952 12.4089 137.471 16.5332L135.488 22.1387C135.192 23.0273 135.044 23.5173 135.044 23.6084C135.044 23.654 135.055 23.6768 135.078 23.6768ZM121.816 62.1973C121.725 62.1973 121.611 62.1517 121.475 62.0605C121.156 61.901 120.996 61.639 120.996 61.2744C120.996 61.0238 121.064 60.7048 121.201 60.3174C121.383 59.8389 121.942 58.0615 122.876 54.9854C125.952 45.096 128.709 36.5967 131.147 29.4873L132.515 25.4199C132.515 25.3743 131.842 25.3516 130.498 25.3516C124.824 25.3516 117.464 25.5111 108.418 25.8301C106.755 25.8757 105.535 25.8984 104.761 25.8984C103.963 25.8984 103.462 25.8529 103.257 25.7617C102.915 25.6478 102.744 25.3971 102.744 25.0098C102.744 24.8047 102.801 24.6338 102.915 24.4971C103.166 24.2692 103.621 24.0755 104.282 23.916C104.92 23.7565 105.558 23.6768 106.196 23.6768C106.493 23.6768 106.72 23.6882 106.88 23.7109C107.017 23.7337 107.119 23.7679 107.188 23.8135C107.256 23.8363 107.324 23.8818 107.393 23.9502C107.461 24.0186 107.541 24.0869 107.632 24.1553C118.729 23.8363 127.24 23.6768 133.164 23.6768L133.301 23.1982C135.716 16.3167 137.288 11.9759 138.018 10.1758C138.997 7.66927 139.909 6.41602 140.752 6.41602C140.889 6.41602 141.037 6.4502 141.196 6.51855C141.675 6.6097 141.914 7.29329 141.914 8.56934C141.914 11.5771 140.592 15.9863 137.949 21.7969C137.425 22.9362 137.163 23.5514 137.163 23.6426C137.163 23.7109 138.348 23.7679 140.718 23.8135C144.272 23.8818 147.793 24.0299 151.279 24.2578C154.766 24.4629 157.34 24.6908 159.004 24.9414C160.508 25.1693 161.26 25.5452 161.26 26.0693C161.191 26.4111 161.089 26.6276 160.952 26.7188C160.838 26.7871 160.645 26.8213 160.371 26.8213C160.052 26.8213 159.574 26.7757 158.936 26.6846C153.945 26.001 146.392 25.5794 136.274 25.4199C135.75 26.5137 134.896 28.4049 133.711 31.0938C132.184 34.4206 131.17 36.5625 130.669 37.5195C130.304 38.2487 129.963 39.0007 129.644 39.7754C129.325 40.5273 128.926 41.6211 128.447 43.0566C127.718 45.1986 125.872 51.0433 122.91 60.5908L122.671 61.4111C122.534 61.7529 122.386 61.9694 122.227 62.0605C122.067 62.1517 121.93 62.1973 121.816 62.1973ZM170.557 68.8965C170.853 68.8965 171.457 68.4635 172.368 67.5977C173.28 66.7318 174.168 65.8317 175.034 64.8975C177.29 62.4137 178.532 60.1123 178.76 57.9932C178.167 58.4033 177.188 59.3604 175.82 60.8643C174.544 62.2998 173.291 63.8037 172.061 65.376C170.853 66.971 170.249 68.042 170.249 68.5889C170.249 68.7939 170.352 68.8965 170.557 68.8965ZM170.044 70.6396C169.748 70.6396 169.497 70.5713 169.292 70.4346C169.087 70.2979 168.916 70.0814 168.779 69.7852C168.643 69.5117 168.574 69.2383 168.574 68.9648C168.574 67.7116 169.406 65.9456 171.069 63.667C172.733 61.3883 174.818 59.1439 177.324 56.9336C178.053 56.3184 178.418 55.9652 178.418 55.874C178.418 55.7601 178.293 55.5436 178.042 55.2246C176.994 53.8802 175.148 52.6839 172.505 51.6357C170.545 50.8838 168.472 50.166 166.284 49.4824C163.368 48.5938 160.861 47.6709 158.765 46.7139C154.731 44.7087 152.715 41.8831 152.715 38.2373C152.715 35.1383 154.139 31.5495 156.987 27.4707C159.084 24.4401 161.488 21.569 164.199 18.8574C170.397 12.4772 177.575 7.68066 185.732 4.46777C189.561 2.98665 193.389 1.96126 197.217 1.3916C198.151 1.30046 199.142 1.25488 200.19 1.25488C201.034 1.25488 201.717 1.28906 202.241 1.35742C203.722 1.60807 204.679 2.13216 205.112 2.92969C205.409 3.4082 205.557 3.84115 205.557 4.22852C205.557 4.61589 205.443 4.94629 205.215 5.21973C204.987 5.47038 204.714 5.5957 204.395 5.5957C204.098 5.5957 203.802 5.45898 203.506 5.18555C203.324 5.00326 203.21 4.78678 203.164 4.53613C203.118 4.28548 203.096 3.97786 203.096 3.61328C203.096 3.22591 202.549 2.98665 201.455 2.89551L200.498 2.86133C198.493 2.86133 196.077 3.20312 193.252 3.88672C190.449 4.54753 187.703 5.44759 185.015 6.58691C177.632 9.68587 171.058 14.2204 165.293 20.1904C158.047 27.6416 154.424 33.6458 154.424 38.2031C154.424 41.3021 156.201 43.6605 159.756 45.2783C162.08 46.3265 164.598 47.2493 167.31 48.0469C169.087 48.5938 170.807 49.1748 172.471 49.79C175.957 51.0889 178.281 52.5814 179.443 54.2676C179.671 54.6094 179.797 54.7803 179.819 54.7803C179.865 54.7803 180.366 54.4385 181.323 53.7549C182.759 52.6839 183.841 51.932 184.57 51.499C185.299 51.0433 185.846 50.8154 186.211 50.8154C186.644 50.8154 186.86 50.9749 186.86 51.2939C186.86 51.5446 186.769 51.7952 186.587 52.0459C186.427 52.2965 186.211 52.5016 185.938 52.6611C184.388 53.5726 182.576 54.86 180.503 56.5234L180.469 57.6514C180.446 58.9502 180.059 60.3516 179.307 61.8555C178.828 62.8353 178.27 63.7354 177.632 64.5557C177.017 65.376 176.185 66.2988 175.137 67.3242C172.904 69.5345 171.206 70.6396 170.044 70.6396ZM190.586 38.1006C190.654 38.1006 190.734 38.0436 190.825 37.9297C191.486 37.0638 192.295 35.7422 193.252 33.9648C194.232 32.1647 194.927 30.7064 195.337 29.5898C195.61 28.7467 195.747 28.0518 195.747 27.5049C195.747 27.3682 195.724 27.2998 195.679 27.2998C195.588 27.2998 195.36 27.4365 194.995 27.71C193.765 28.6442 192.716 29.8861 191.851 31.4355C190.711 33.418 190.142 35.1383 190.142 36.5967C190.142 37.0524 190.187 37.417 190.278 37.6904C190.392 37.9639 190.495 38.1006 190.586 38.1006ZM196.328 47.3975C195.143 47.3975 194.289 46.9531 193.765 46.0645C193.423 45.5176 193.138 44.891 192.91 44.1846C192.614 43.068 192.044 42.0882 191.201 41.2451C190.221 40.4476 189.515 39.6956 189.082 38.9893C188.626 38.2601 188.398 37.4626 188.398 36.5967C188.398 36.141 188.455 35.651 188.569 35.127C188.979 33.2129 189.777 31.3672 190.962 29.5898C192.147 27.8125 193.411 26.5592 194.756 25.8301C195.189 25.6022 195.565 25.4883 195.884 25.4883C196.203 25.4883 196.476 25.6022 196.704 25.8301C196.955 26.0352 197.126 26.263 197.217 26.5137C197.308 26.7415 197.354 27.0719 197.354 27.5049V28.0518C197.331 28.7354 197.183 29.4531 196.909 30.2051C195.588 33.6003 193.833 36.6764 191.646 39.4336L192.158 39.8438C193.184 40.6185 193.856 41.5983 194.175 42.7832C194.539 43.8997 194.881 44.6745 195.2 45.1074C195.519 45.5176 195.918 45.7227 196.396 45.7227C197.445 45.6315 198.595 45.0732 199.849 44.0479C201.102 42.9997 202.218 41.9629 203.198 40.9375L204.429 39.7754C204.771 39.5247 205.055 39.3994 205.283 39.3994C205.443 39.3994 205.568 39.4336 205.659 39.502C205.841 39.6615 205.933 39.8324 205.933 40.0146C205.933 40.6299 204.748 42.0426 202.378 44.2529C200.122 46.3493 198.105 47.3975 196.328 47.3975ZM207.573 34.5117C207.049 34.5117 206.787 34.1813 206.787 33.5205C206.787 33.2699 206.821 33.0306 206.89 32.8027C206.981 32.5521 207.106 32.3584 207.266 32.2217C207.448 32.0622 207.664 31.9824 207.915 31.9824C208.143 31.9824 208.314 32.0736 208.428 32.2559C208.564 32.4154 208.633 32.723 208.633 33.1787C208.633 34.0674 208.28 34.5117 207.573 34.5117ZM208.599 46.1328H208.257C207.118 46.0189 206.183 45.5404 205.454 44.6973C204.725 43.8314 204.338 42.7262 204.292 41.3818C204.292 40.2197 204.6 39.012 205.215 37.7588C205.83 36.3232 206.388 35.6055 206.89 35.6055C207.049 35.6055 207.209 35.6966 207.368 35.8789C207.55 36.0384 207.642 36.2549 207.642 36.5283L207.607 37.1094C207.539 38.1348 207.288 38.7614 206.855 38.9893C206.696 39.0576 206.571 39.1602 206.479 39.2969C206.388 39.4336 206.309 39.6387 206.24 39.9121C206.104 40.5957 206.035 41.1882 206.035 41.6895C206.035 43.4896 206.855 44.3896 208.496 44.3896C209.932 44.3896 211.686 43.7858 213.76 42.5781C215.332 41.6667 216.665 40.7324 217.759 39.7754C218.123 39.502 218.442 39.3652 218.716 39.3652C218.989 39.3652 219.172 39.4678 219.263 39.6729C219.331 39.7868 219.365 39.9235 219.365 40.083C219.365 40.3792 219.16 40.721 218.75 41.1084C216.995 42.6123 215.173 43.8314 213.281 44.7656C211.39 45.6771 209.829 46.1328 208.599 46.1328ZM219.775 45.0732C219.274 45.0732 218.864 44.9023 218.545 44.5605C218.135 44.1048 217.93 43.1592 217.93 41.7236C217.93 40.6755 218.021 39.6273 218.203 38.5791C218.408 37.5309 218.659 36.779 218.955 36.3232C219.183 36.027 219.456 35.8789 219.775 35.8789C220.186 35.8789 220.391 36.1068 220.391 36.5625C220.391 36.7448 220.345 36.9727 220.254 37.2461C220.026 37.8613 219.844 38.5905 219.707 39.4336C219.57 40.2767 219.502 41.0514 219.502 41.7578C219.502 42.7832 219.639 43.3073 219.912 43.3301C220.14 43.3301 220.562 43.125 221.177 42.7148C221.815 42.2819 222.407 41.8148 222.954 41.3135C223.501 40.8122 224.036 40.2539 224.561 39.6387C225.107 39.0234 225.552 38.4766 225.894 37.998C226.463 37.1777 226.942 36.7676 227.329 36.7676C227.534 36.7676 227.705 36.8929 227.842 37.1436C227.91 37.2347 227.944 37.3372 227.944 37.4512C227.944 37.5195 227.933 37.5993 227.91 37.6904C227.91 37.7588 227.865 37.9411 227.773 38.2373C227.682 38.5107 227.637 38.7272 227.637 38.8867C227.637 39.0007 227.648 39.1032 227.671 39.1943C227.716 39.2627 227.762 39.3311 227.808 39.3994C227.853 39.4678 227.887 39.5361 227.91 39.6045C228.138 39.9463 228.457 40.1172 228.867 40.1172C229.391 40.1172 229.915 39.9805 230.439 39.707C230.758 39.5475 231.043 39.4678 231.294 39.4678C231.75 39.4678 231.989 39.7184 232.012 40.2197C232.012 40.516 231.818 40.8008 231.431 41.0742C230.77 41.5527 229.995 41.792 229.106 41.792C228.377 41.792 227.728 41.5983 227.158 41.2109C226.816 40.9603 226.554 40.6299 226.372 40.2197L224.868 41.8604C224.435 42.2933 223.888 42.7832 223.228 43.3301C222.567 43.8542 222.031 44.2415 221.621 44.4922C220.915 44.8796 220.299 45.0732 219.775 45.0732ZM233.379 45.5859C232.9 45.5859 232.445 45.4834 232.012 45.2783C230.895 44.6859 230.337 43.6263 230.337 42.0996C230.337 41.1654 230.508 40.2311 230.85 39.2969C231.169 38.3398 231.533 37.5537 231.943 36.9385C233.607 34.3864 235.92 32.9281 238.882 32.5635L239.497 32.5293C240.75 32.5293 241.992 32.8255 243.223 33.418C244.476 33.9876 245.228 34.9788 245.479 36.3916V36.5625C245.479 37.0182 245.228 37.2803 244.727 37.3486C244.476 37.3486 244.282 37.2689 244.146 37.1094C244.032 36.9499 243.929 36.7448 243.838 36.4941C243.701 36.0156 243.382 35.5485 242.881 35.0928C242.402 34.637 241.491 34.3522 240.146 34.2383H239.771C237.287 34.2383 235.213 35.3548 233.55 37.5879C232.524 39.2285 232.012 40.6982 232.012 41.9971C232.012 42.43 232.08 42.806 232.217 43.125C232.467 43.6035 232.832 43.8428 233.311 43.8428C233.88 43.8428 234.518 43.6149 235.225 43.1592C235.954 42.7035 236.615 42.2135 237.207 41.6895C237.799 41.1654 238.21 40.7666 238.438 40.4932C238.688 40.1969 238.882 39.9805 239.019 39.8438C239.178 39.707 239.315 39.6159 239.429 39.5703C239.565 39.5247 239.725 39.502 239.907 39.502C240.226 39.502 240.454 39.5931 240.591 39.7754C240.728 39.9349 240.841 40.2311 240.933 40.6641C241.138 41.9401 241.742 42.5781 242.744 42.5781H243.018C244.704 42.5781 246.8 41.6211 249.307 39.707C249.808 39.3197 250.207 39.126 250.503 39.126C250.913 39.126 251.118 39.3311 251.118 39.7412C251.118 40.0146 250.959 40.3564 250.64 40.7666C250.275 41.1312 249.705 41.5755 248.931 42.0996C246.812 43.5124 244.84 44.2188 243.018 44.2188C242.402 44.2188 241.878 44.1276 241.445 43.9453C240.557 43.4896 239.953 42.7832 239.634 41.8262C238.745 42.6465 238.062 43.2503 237.583 43.6377C235.988 44.9365 234.587 45.5859 233.379 45.5859ZM251.938 53.8232C251.528 53.8232 251.243 53.5384 251.084 52.9688V52.7295C251.084 52.0003 251.437 50.9749 252.144 49.6533C252.44 49.1292 252.588 48.7533 252.588 48.5254C252.52 47.9557 252.28 47.4886 251.87 47.124C251.483 46.7367 251.05 46.3835 250.571 46.0645C249.159 45.1986 248.452 44.2074 248.452 43.0908C248.452 42.2477 248.703 41.3363 249.204 40.3564C250.571 37.6221 252.565 35.5827 255.186 34.2383C256.074 33.7598 256.929 33.5205 257.749 33.5205C258.159 33.5205 258.547 33.6003 258.911 33.7598C259.276 33.9876 259.458 34.2497 259.458 34.5459C259.458 34.751 259.39 34.9447 259.253 35.127C259.116 35.2865 258.945 35.3662 258.74 35.3662C258.581 35.3662 258.41 35.3092 258.228 35.1953C258.136 35.127 258 35.0928 257.817 35.0928C257.476 35.0928 256.963 35.2295 256.279 35.5029C254.867 36.0726 253.568 37.0752 252.383 38.5107C251.198 39.9235 250.446 41.3704 250.127 42.8516V42.9883C250.127 43.3073 250.309 43.6491 250.674 44.0137C251.061 44.3555 251.494 44.6973 251.973 45.0391C252.77 45.6087 253.408 46.2126 253.887 46.8506C255.049 45.2783 256.405 43.763 257.954 42.3047C259.959 40.4134 261.167 39.3538 261.577 39.126C261.691 39.0804 261.805 39.0576 261.919 39.0576C262.147 39.0576 262.329 39.126 262.466 39.2627C262.625 39.3994 262.705 39.5931 262.705 39.8438C262.705 40.0716 262.58 40.3223 262.329 40.5957C262.101 40.8464 261.383 41.5186 260.176 42.6123C258.558 44.0251 257.157 45.4834 255.972 46.9873C254.946 48.2861 254.399 49.0723 254.331 49.3457C253.807 52.3307 253.009 53.8232 251.938 53.8232ZM268.652 23.6768C268.743 23.6768 268.994 23.2438 269.404 22.3779C270.771 19.4157 271.785 16.9092 272.446 14.8584C273.289 12.3519 273.711 10.6201 273.711 9.66309C273.415 10.1188 272.526 12.4089 271.045 16.5332L269.062 22.1387C268.766 23.0273 268.618 23.5173 268.618 23.6084C268.618 23.654 268.63 23.6768 268.652 23.6768ZM255.391 62.1973C255.299 62.1973 255.186 62.1517 255.049 62.0605C254.73 61.901 254.57 61.639 254.57 61.2744C254.57 61.0238 254.639 60.7048 254.775 60.3174C254.958 59.8389 255.516 58.0615 256.45 54.9854C259.526 45.096 262.284 36.5967 264.722 29.4873L266.089 25.4199C266.089 25.3743 265.417 25.3516 264.072 25.3516C258.398 25.3516 251.038 25.5111 241.992 25.8301C240.329 25.8757 239.11 25.8984 238.335 25.8984C237.537 25.8984 237.036 25.8529 236.831 25.7617C236.489 25.6478 236.318 25.3971 236.318 25.0098C236.318 24.8047 236.375 24.6338 236.489 24.4971C236.74 24.2692 237.196 24.0755 237.856 23.916C238.494 23.7565 239.132 23.6768 239.771 23.6768C240.067 23.6768 240.295 23.6882 240.454 23.7109C240.591 23.7337 240.693 23.7679 240.762 23.8135C240.83 23.8363 240.898 23.8818 240.967 23.9502C241.035 24.0186 241.115 24.0869 241.206 24.1553C252.303 23.8363 260.814 23.6768 266.738 23.6768L266.875 23.1982C269.29 16.3167 270.863 11.9759 271.592 10.1758C272.572 7.66927 273.483 6.41602 274.326 6.41602C274.463 6.41602 274.611 6.4502 274.771 6.51855C275.249 6.6097 275.488 7.29329 275.488 8.56934C275.488 11.5771 274.167 15.9863 271.523 21.7969C270.999 22.9362 270.737 23.5514 270.737 23.6426C270.737 23.7109 271.922 23.7679 274.292 23.8135C277.847 23.8818 281.367 24.0299 284.854 24.2578C288.34 24.4629 290.915 24.6908 292.578 24.9414C294.082 25.1693 294.834 25.5452 294.834 26.0693C294.766 26.4111 294.663 26.6276 294.526 26.7188C294.412 26.7871 294.219 26.8213 293.945 26.8213C293.626 26.8213 293.148 26.7757 292.51 26.6846C287.52 26.001 279.966 25.5794 269.849 25.4199C269.325 26.5137 268.47 28.4049 267.285 31.0938C265.758 34.4206 264.744 36.5625 264.243 37.5195C263.879 38.2487 263.537 39.0007 263.218 39.7754C262.899 40.5273 262.5 41.6211 262.021 43.0566C261.292 45.1986 259.447 51.0433 256.484 60.5908L256.245 61.4111C256.108 61.7529 255.96 61.9694 255.801 62.0605C255.641 62.1517 255.505 62.1973 255.391 62.1973ZM268.926 45.5859C268.447 45.5859 267.992 45.4834 267.559 45.2783C266.442 44.6859 265.884 43.6263 265.884 42.0996C265.884 41.1654 266.055 40.2311 266.396 39.2969C266.715 38.3398 267.08 37.5537 267.49 36.9385C269.154 34.3864 271.466 32.9281 274.429 32.5635L275.044 32.5293C276.297 32.5293 277.539 32.8255 278.77 33.418C280.023 33.9876 280.775 34.9788 281.025 36.3916V36.5625C281.025 37.0182 280.775 37.2803 280.273 37.3486C280.023 37.3486 279.829 37.2689 279.692 37.1094C279.578 36.9499 279.476 36.7448 279.385 36.4941C279.248 36.0156 278.929 35.5485 278.428 35.0928C277.949 34.637 277.038 34.3522 275.693 34.2383H275.317C272.834 34.2383 270.76 35.3548 269.097 37.5879C268.071 39.2285 267.559 40.6982 267.559 41.9971C267.559 42.43 267.627 42.806 267.764 43.125C268.014 43.6035 268.379 43.8428 268.857 43.8428C269.427 43.8428 270.065 43.6149 270.771 43.1592C271.501 42.7035 272.161 42.2135 272.754 41.6895C273.346 41.1654 273.757 40.7666 273.984 40.4932C274.235 40.1969 274.429 39.9805 274.565 39.8438C274.725 39.707 274.862 39.6159 274.976 39.5703C275.112 39.5247 275.272 39.502 275.454 39.502C275.773 39.502 276.001 39.5931 276.138 39.7754C276.274 39.9349 276.388 40.2311 276.479 40.6641C276.685 41.9401 277.288 42.5781 278.291 42.5781H278.564C280.251 42.5781 282.347 41.6211 284.854 39.707C285.355 39.3197 285.754 39.126 286.05 39.126C286.46 39.126 286.665 39.3311 286.665 39.7412C286.665 40.0146 286.506 40.3564 286.187 40.7666C285.822 41.1312 285.252 41.5755 284.478 42.0996C282.358 43.5124 280.387 44.2188 278.564 44.2188C277.949 44.2188 277.425 44.1276 276.992 43.9453C276.104 43.4896 275.5 42.7832 275.181 41.8262C274.292 42.6465 273.608 43.2503 273.13 43.6377C271.535 44.9365 270.133 45.5859 268.926 45.5859ZM287.041 45.0732C286.54 45.0732 286.13 44.9023 285.811 44.5605C285.4 44.1048 285.195 43.1592 285.195 41.7236C285.195 40.6755 285.286 39.6273 285.469 38.5791C285.674 37.5309 285.924 36.779 286.221 36.3232C286.449 36.027 286.722 35.8789 287.041 35.8789C287.451 35.8789 287.656 36.1068 287.656 36.5625C287.656 36.7448 287.611 36.9727 287.52 37.2461C287.292 37.8613 287.109 38.5905 286.973 39.4336C286.836 40.2767 286.768 41.0514 286.768 41.7578C286.768 42.7832 286.904 43.3073 287.178 43.3301C287.406 43.3301 287.827 43.125 288.442 42.7148C289.08 42.2819 289.673 41.8148 290.22 41.3135C290.767 40.8122 291.302 40.2539 291.826 39.6387C292.373 39.0234 292.817 38.4766 293.159 37.998C293.729 37.1777 294.207 36.7676 294.595 36.7676C294.8 36.7676 294.971 36.8929 295.107 37.1436C295.176 37.2347 295.21 37.3372 295.21 37.4512C295.21 37.5195 295.199 37.5993 295.176 37.6904C295.176 37.7588 295.13 37.9411 295.039 38.2373C294.948 38.5107 294.902 38.7272 294.902 38.8867C294.902 39.0007 294.914 39.1032 294.937 39.1943C294.982 39.2627 295.028 39.3311 295.073 39.3994C295.119 39.4678 295.153 39.5361 295.176 39.6045C295.404 39.9463 295.723 40.1172 296.133 40.1172C296.657 40.1172 297.181 39.9805 297.705 39.707C298.024 39.5475 298.309 39.4678 298.56 39.4678C299.015 39.4678 299.255 39.7184 299.277 40.2197C299.277 40.516 299.084 40.8008 298.696 41.0742C298.035 41.5527 297.261 41.792 296.372 41.792C295.643 41.792 294.993 41.5983 294.424 41.2109C294.082 40.9603 293.82 40.6299 293.638 40.2197L292.134 41.8604C291.701 42.2933 291.154 42.7832 290.493 43.3301C289.832 43.8542 289.297 44.2415 288.887 44.4922C288.18 44.8796 287.565 45.0732 287.041 45.0732ZM300.645 45.5859C300.166 45.5859 299.71 45.4834 299.277 45.2783C298.161 44.6859 297.603 43.6263 297.603 42.0996C297.603 41.1654 297.773 40.2311 298.115 39.2969C298.434 38.3398 298.799 37.5537 299.209 36.9385C300.872 34.3864 303.185 32.9281 306.147 32.5635L306.763 32.5293C308.016 32.5293 309.258 32.8255 310.488 33.418C311.742 33.9876 312.493 34.9788 312.744 36.3916V36.5625C312.744 37.0182 312.493 37.2803 311.992 37.3486C311.742 37.3486 311.548 37.2689 311.411 37.1094C311.297 36.9499 311.195 36.7448 311.104 36.4941C310.967 36.0156 310.648 35.5485 310.146 35.0928C309.668 34.637 308.757 34.3522 307.412 34.2383H307.036C304.552 34.2383 302.479 35.3548 300.815 37.5879C299.79 39.2285 299.277 40.6982 299.277 41.9971C299.277 42.43 299.346 42.806 299.482 43.125C299.733 43.6035 300.098 43.8428 300.576 43.8428C301.146 43.8428 301.784 43.6149 302.49 43.1592C303.219 42.7035 303.88 42.2135 304.473 41.6895C305.065 41.1654 305.475 40.7666 305.703 40.4932C305.954 40.1969 306.147 39.9805 306.284 39.8438C306.444 39.707 306.58 39.6159 306.694 39.5703C306.831 39.5247 306.991 39.502 307.173 39.502C307.492 39.502 307.72 39.5931 307.856 39.7754C307.993 39.9349 308.107 40.2311 308.198 40.6641C308.403 41.9401 309.007 42.5781 310.01 42.5781H310.283C311.969 42.5781 314.066 41.6211 316.572 39.707C317.074 39.3197 317.472 39.126 317.769 39.126C318.179 39.126 318.384 39.3311 318.384 39.7412C318.384 40.0146 318.224 40.3564 317.905 40.7666C317.541 41.1312 316.971 41.5755 316.196 42.0996C314.077 43.5124 312.106 44.2188 310.283 44.2188C309.668 44.2188 309.144 44.1276 308.711 43.9453C307.822 43.4896 307.218 42.7832 306.899 41.8262C306.011 42.6465 305.327 43.2503 304.849 43.6377C303.254 44.9365 301.852 45.5859 300.645 45.5859Z" fill="url(#paint0_linear_3_4)"/>
<defs>
<linearGradient id="paint0_linear_3_4" x1="42" y1="35" x2="316" y2="35" gradientUnits="userSpaceOnUse">
<stop stop-color="#fff"/>
<stop offset="1" stop-color="#Fff"/>
</linearGradient>
</defs>
</svg>
